<?xml version="1.0" encoding="UTF-8"?>
<svg width="32px" height="32px" viewBox="0 0 32 32" version="1.1" xmlns="http://www.w3.org/2000/svg" xmlns:xlink="http://www.w3.org/1999/xlink">
    <title>add-circle</title>
    <g id="add-circle" stroke="none" stroke-width="1" fill="none" fill-rule="evenodd">
        <path d="M4.68418928,4.68418928 C10.8919907,-1.56139643 21.070225,-1.56139643 27.3158107,4.68418928 C33.5613964,10.929775 33.5613964,21.070225 27.3158107,27.3158107 C21.070225,33.5613964 10.929775,33.5613964 4.68418928,27.3158107 C-1.56139643,21.070225 -1.56139643,10.929775 4.68418928,4.68418928 Z M24.7197871,24.7197871 C29.5348714,19.9047027 29.5348714,12.0578986 24.7197871,7.24281422 C19.9047027,2.42772986 12.0578986,2.42772986 7.24281422,7.24281422 C2.42772986,12.0578986 2.42772986,19.9047027 7.24281422,24.7197871 C12.0578986,29.5348714 19.9047027,29.5348714 24.7197871,24.7197871 Z M16,8.5 C16.7192071,8.5 17.2874808,9.06827366 17.2874808,9.7874808 L17.2874808,14.7125192 L22.2125192,14.7125192 C22.9317263,14.7125192 23.5,15.2807929 23.5,16 C23.5,16.340358 23.3490514,16.6807312 23.1211509,16.9086317 C22.8947507,17.1365322 22.5528924,17.2874808 22.2125192,17.2874808 L17.2874808,17.2874808 L17.2874808,22.2125192 C17.2874808,22.5528772 17.1365322,22.8932504 16.9086317,23.1211509 C16.6822315,23.3490514 16.3403732,23.5 16,23.5 C15.2807929,23.5 14.7125192,22.9317263 14.7125192,22.2125192 L14.7125192,17.2874808 L9.7874808,17.2874808 C9.06827366,17.2874808 8.5,16.7192071 8.5,16 C8.5,15.2807929 9.06827366,14.7125192 9.7874808,14.7125192 L14.7125192,14.7125192 L14.7125192,9.7874808 C14.7125192,9.06827366 15.2807929,8.5 16,8.5 Z" id="Shape" fill="#B6B6B6"></path>
    </g>
</svg>