<?xml version="1.0" encoding="UTF-8"?>
<svg width="32px" height="32px" viewBox="0 0 32 32" version="1.1" xmlns="http://www.w3.org/2000/svg" xmlns:xlink="http://www.w3.org/1999/xlink">
    <title>close</title>
    <g id="close" stroke="none" stroke-width="1" fill="none" fill-rule="evenodd">
        <path d="M19.6930465,16.0001824 L31.2343959,4.45870177 C32.2552014,3.43927127 32.2552014,1.78653665 31.2343959,0.765612852 C30.214977,-0.255204284 28.5622611,-0.255204284 27.541349,0.765612852 L15.9999996,12.3070935 L4.45865033,0.765612852 C3.43923143,-0.255204284 1.78651561,-0.255204284 0.765604141,0.765612852 C-0.25520138,1.78504335 -0.25520138,3.43777797 0.765604141,4.45870177 L12.3069527,16.0001824 L0.765604141,27.541663 C-0.25520138,28.5610935 -0.25520138,30.2138281 0.765604141,31.2347516 C1.27531359,31.7444668 1.94334656,32 2.61138023,32 C3.27941391,32 3.94744759,31.7444491 4.45715704,31.2347516 L15.9999285,19.6932713 L27.5412779,31.2347516 C28.0509873,31.7444668 28.7204076,32 29.3884413,32 C30.056475,32 30.7245086,31.7444491 31.2342181,31.2347516 C32.2550236,30.2153214 32.2550236,28.5625868 31.2342181,27.541663 L19.6930465,16.0001824 Z" fill="#000000"></path>
    </g>
</svg>