<?xml version="1.0" encoding="UTF-8"?>
<svg width="32px" height="32px" viewBox="0 0 32 32" version="1.1" xmlns="http://www.w3.org/2000/svg" xmlns:xlink="http://www.w3.org/1999/xlink">
    <title>home</title>
    <g id="home" stroke="none" stroke-width="1" fill="none" fill-rule="evenodd">
        <path d="M15.998075,3.00019036 C15.7587492,3.00476396 15.5148419,3.09012878 15.278552,3.24408984 L0.449463501,14.951265 C0.0683707542,15.3293092 -0.199934286,16.1433286 0.193368263,16.6463859 C0.586652082,17.1494432 1.41134452,17.2164863 1.88848996,16.7927256 L15.9979775,5.65881179 L30.1074611,16.7927256 C30.5846065,17.2164863 31.4275661,17.1616226 31.8025859,16.6463859 C32.1318502,16.1936304 32.051059,15.3278068 31.5464914,14.951265 L16.7174029,3.24408984 C16.4735034,3.0733602 16.2372136,2.99561675 15.9978799,3.00019036 L15.998075,3.00019036 Z M6.6323349,14.4267836 L4.29089986,16.2804196 L4.29089986,27.5852582 C4.29089986,28.2315723 4.81374231,28.7559757 5.46161738,28.7559757 L12.8761617,28.7559757 C13.5224758,28.7559757 14.0468792,28.2315723 14.0468792,27.5852582 L14.0468792,22.9023881 C14.0468792,21.8017966 14.8974835,20.9511923 15.998075,20.9511923 C17.0986666,20.9511923 17.9492709,21.8017966 17.9492709,22.9023881 L17.9492709,27.5852582 C17.9492709,28.2315723 18.4721133,28.7559757 19.1199884,28.7559757 L26.5345327,28.7559757 C27.1808468,28.7559757 27.7052502,28.2315723 27.7052502,27.5852582 L27.7052502,16.2804196 L25.3638152,14.4267836 L25.3638152,26.4145407 L20.2907059,26.4145407 L20.2907059,22.9023881 C20.2907059,20.5441728 18.3562904,18.6097572 15.998075,18.6097572 C13.6398597,18.6097572 11.7054441,20.5441728 11.7054441,22.9023881 L11.7054441,26.4145407 L6.6323349,26.4145407 L6.6323349,14.4267836 Z" id="Mask" fill="#7D7D7D"></path>
    </g>
</svg>