<?xml version="1.0" encoding="UTF-8"?>
<svg width="32px" height="32px" viewBox="0 0 32 32" version="1.1" xmlns="http://www.w3.org/2000/svg" xmlns:xlink="http://www.w3.org/1999/xlink">
    <title>more</title>
    <g id="more" stroke="none" stroke-width="1" fill="none" fill-rule="evenodd">
        <path d="M4,12 C1.79017143,12 0,13.7901714 0,16 C0,18.2098286 1.79017143,20 4,20 C6.20982857,20 8,18.2098286 8,16 C8,13.7901714 6.20982857,12 4,12 Z M16,12 C13.7901714,12 12,13.7901714 12,16 C12,18.2098286 13.7901714,20 16,20 C18.2098286,20 20,18.2098286 20,16 C20,13.7901714 18.2098286,12 16,12 Z M28,12 C25.7901714,12 24,13.7901714 24,16 C24,18.2098286 25.7901714,20 28,20 C30.2098286,20 32,18.2098286 32,16 C32,13.7901714 30.2098286,12 28,12 Z" id="Mask" fill="#000000" transform="translate(16.000000, 16.000000) rotate(90.000000) translate(-16.000000, -16.000000) "></path>
    </g>
</svg>