<?xml version="1.0" encoding="UTF-8"?>
<svg width="32px" height="32px" viewBox="0 0 32 32" version="1.1" xmlns="http://www.w3.org/2000/svg" xmlns:xlink="http://www.w3.org/1999/xlink">
    <title>reminder</title>
    <g id="reminder" stroke="none" stroke-width="1" fill="none" fill-rule="evenodd">
        <path d="M4.32817007,21.9998099 L4.32853703,22 C4.06617276,22 3.91259343,21.7277883 4.0533753,21.5236287 L5.19243424,19.7666074 C6.40825826,17.8860192 7.05458558,15.7267162 7.05458558,13.5242708 L7.05458558,9.40389151 C7.05458558,4.20685405 11.4956901,0 16.9731069,0 C22.4505237,0 26.8916282,4.2131892 26.8916282,9.40389151 L26.8916282,13.4374793 C26.8916282,15.6462281 27.5379555,17.8052461 28.7537796,19.6798159 L29.9504041,21.5234386 C30.0847742,21.727595 29.9312047,21.9998099 29.6688404,21.9998099 L4.32817007,21.9998099 Z M30.3530744,26 L30.3530094,26 C30.7145635,26 31,26.2657455 31,26.5964685 L31,28.3976357 C31,28.7342517 30.7082339,29.0000002 30.3530094,29.0000002 L19.7222544,29.0000002 C19.7222544,30.6594503 18.2823902,32 16.4999997,32 C14.7176091,32 13.2777449,30.6594503 13.2777449,29.0000002 L2.64699059,29.0000002 C2.28543645,29.0000002 2,28.7283587 2,28.3976357 L2,26.6023645 C2,26.2657485 2.29176606,26 2.64699059,26 L30.3530744,26 Z" id="Mask" fill="#000000"></path>
    </g>
</svg>