<?xml version="1.0" encoding="UTF-8"?>
<svg width="32px" height="32px" viewBox="0 0 32 32" version="1.1" xmlns="http://www.w3.org/2000/svg" xmlns:xlink="http://www.w3.org/1999/xlink">
    <title>trash</title>
    <g id="trash" stroke="none" stroke-width="1" fill="none" fill-rule="evenodd">
        <path d="M29.5633213,5.45131777 C30.1369961,5.45131777 30.5738317,5.92367344 30.5422526,6.46184833 L30.5422526,8.51713275 C30.5422526,9.05662133 30.1040865,9.52766331 29.531722,9.52766331 L27.7461853,9.52766331 L25.2869581,29.3000411 C25.1185363,30.8500606 23.8053856,31.9947896 22.2553664,31.9947896 L9.28689089,31.9947896 C7.73687175,31.9947896 6.4579308,30.8158373 6.25529921,29.3000411 L3.79607204,9.52766331 L2.01053056,9.52766331 C1.47104198,9.52766331 1,9.08949726 1,8.51713275 L1,6.46184833 C1,5.92235975 1.43816605,5.45131777 2.01053056,5.45131777 L29.5633179,5.45131777 Z M13.4632082,25.7289608 L13.4632082,13.9394376 C13.4632082,13.2657506 12.9237196,12.726262 12.2500326,12.726262 C11.5763456,12.726262 11.036857,13.2657506 11.036857,13.9394376 L11.036857,25.7289608 C11.036857,26.4026479 11.5763456,26.9421365 12.2500326,26.9421365 C12.9237196,26.9421365 13.4632082,26.4026479 13.4632082,25.7289608 Z M20.5699328,25.7289608 L20.5699328,13.9394376 C20.5699328,13.2657506 20.0304442,12.726262 19.3567572,12.726262 C18.6830701,12.726262 18.1435816,13.2657506 18.1435816,13.9394376 L18.1435816,25.7289608 C18.1435816,26.4026479 18.6830701,26.9421365 19.3567572,26.9421365 C20.0304442,26.9421365 20.5699328,26.4026479 20.5699328,25.7289608 Z M20.3688372,1.00532015 L20.4018479,1.00532015 L20.4018479,3.39744809 L11.2056829,3.39744809 L11.2056829,1.00532015 C11.2056829,0.465831567 11.643849,-0.00521041146 12.2162135,-0.00521041146 L19.3583067,-0.00521041146 C19.8977952,-0.00521041146 20.3688372,0.432955639 20.3688372,1.00532015 Z" fill="#000000"></path>
    </g>
</svg>