<?xml version="1.0" encoding="UTF-8"?>
<svg viewBox="0 0 32 32" version="1.1" xmlns="http://www.w3.org/2000/svg" xmlns:xlink="http://www.w3.org/1999/xlink">
    <title>user</title>
    <g id="user" stroke="none" stroke-width="1" fill-rule="evenodd" fill="black">
        <path d="M15.5151515,0 C24.0696285,0 31.030303,7.17819562 31.030303,16.0000001 C31.030303,24.8218046 24.0710093,31.9999998 15.5151515,31.9999998 C6.95929368,31.9999998 0,24.8232285 0,16.0000001 C0,7.17677165 6.95929368,0 15.5151515,0 Z M15.5151515,29.8070977 C22.8980094,29.8070977 28.9038522,23.6135723 28.9038522,16.0000001 C28.9038522,8.38642791 22.8980094,2.19290245 15.5151515,2.19290245 C8.13229368,2.19290245 2.12645085,8.38642791 2.12645085,16.0000001 C2.12645085,23.6135723 8.13229368,29.8070977 15.5151515,29.8070977 Z M15.480524,16.9300034 C12.8255327,16.9300034 10.665321,14.7023919 10.6666673,11.9657137 C10.6666673,9.22771834 12.8254291,7 15.480524,7 C18.1341689,7 20.2943806,9.22764714 20.2943806,11.9657137 C20.2943806,14.7022851 18.1356188,16.9300034 15.480524,16.9300034 Z M15.480524,9.19147849 C13.9985672,9.19147849 12.7930491,10.4360574 12.7930491,11.9643253 C12.7930491,13.4925932 13.9985672,14.7357838 15.480524,14.7357838 C16.9624807,14.7357838 18.1679988,13.4925932 18.1679988,11.9643253 C18.1679988,10.4346691 16.9624807,9.19147849 15.480524,9.19147849 Z M25.1405139,21.3963022 L25.1405825,21.3963468 C25.3510025,21.9861193 25.0816046,22.6499332 24.5374908,22.8794425 C23.9920047,23.1075052 23.3795396,22.8155195 23.1691265,22.2257841 C22.5325145,20.4492525 21.4817872,19.5428547 19.7864194,19.3249661 C18.6484432,20.1355128 17.3511338,20.5611084 16.0068891,20.5611084 C14.664154,20.5611084 13.3654722,20.1355128 12.2249571,19.3249661 C10.5202229,19.5457403 9.46548139,20.4637922 8.83288353,22.2620778 C8.67207508,22.7196498 8.27134056,23 7.84514843,23 C7.71915379,23 7.59183481,22.9753084 7.46853346,22.9244675 C6.92308507,22.6993053 6.64967982,22.0369082 6.85741332,21.4457226 C7.82631253,18.6903024 9.7066426,17.1970289 12.4447092,17.0038356 C12.6912913,16.9864065 12.9405701,17.064847 13.141603,17.2260824 C13.9939873,17.908798 14.9843985,18.270493 16.006992,18.270493 C17.0308893,18.270493 18.0199625,17.9087832 18.8683326,17.2260824 C19.069386,17.063393 19.3146369,16.9849562 19.5665987,17.0023854 C22.289878,17.1924066 24.1648214,18.6712631 25.1405139,21.3963022 Z"></path>
    </g>
</svg>